<svg width="159" height="70" viewBox="0 0 159 70" fill="none" xmlns="http://www.w3.org/2000/svg">
<path d="M6.33603 69.12C4.41603 69.12 2.88003 68.608 1.72803 67.584C0.576031 66.56 3.12328e-05 65.152 3.12328e-05 63.36V15.168C3.12328e-05 10.688 1.28003 7.19997 3.84003 4.70397C6.46403 2.20797 10.08 0.959969 14.688 0.959969H30.912C40.64 0.959969 48.032 2.97597 53.088 7.00797C58.144 11.04 60.672 16.96 60.672 24.768C60.672 32.576 58.208 38.496 53.28 42.528C48.352 46.56 41.088 48.576 31.488 48.576H12.768V63.36C12.768 65.088 12.16 66.496 10.944 67.584C9.79203 68.608 8.25603 69.12 6.33603 69.12ZM31.392 38.688C42.336 38.688 47.808 34.048 47.808 24.768C47.808 15.488 42.336 10.848 31.392 10.848H16.896C15.616 10.848 14.592 11.264 13.824 12.096C13.12 12.928 12.768 14.08 12.768 15.552V38.688H31.392Z" fill="#787CC2"/>
<path d="M80.1 69.12C78.244 69.12 76.74 68.544 75.588 67.392C74.436 66.24 73.86 64.736 73.86 62.88V54.528H43.14C41.348 54.528 39.908 54.112 38.82 53.28C37.796 52.448 37.284 51.392 37.284 50.112C37.284 48.832 37.796 47.584 38.82 46.368L75.3 2.11197C75.812 1.47197 76.548 0.95997 77.508 0.575968C78.532 0.191969 79.524 -3.05176e-05 80.484 -3.05176e-05C82.084 -3.05176e-05 83.46 0.479969 84.612 1.43997C85.828 2.33597 86.436 3.51997 86.436 4.99197V44.64H91.14C92.996 44.64 94.436 45.056 95.46 45.888C96.548 46.72 97.092 47.968 97.092 49.632C97.092 51.232 96.548 52.448 95.46 53.28C94.372 54.112 92.932 54.528 91.14 54.528H86.436V62.88C86.436 64.672 85.828 66.176 84.612 67.392C83.46 68.544 81.956 69.12 80.1 69.12ZM74.724 44.736V19.2L53.412 44.736H74.724Z" fill="#2563EB"/>
<path d="M80.0123 69.12C78.0923 69.12 76.5563 68.608 75.4043 67.584C74.2523 66.56 73.6763 65.152 73.6763 63.36V23.808C73.6763 16.384 75.7883 10.56 80.0123 6.33597C84.2363 2.11197 90.0603 -3.05176e-05 97.4843 -3.05176e-05C101.068 -3.05176e-05 104.428 0.895969 107.564 2.68797C110.764 4.41597 113.516 6.91197 115.82 10.176C118.06 6.84797 120.748 4.31997 123.884 2.59197C127.084 0.86397 130.54 -3.05176e-05 134.252 -3.05176e-05C141.676 -3.05176e-05 147.5 2.11197 151.724 6.33597C155.948 10.56 158.06 16.384 158.06 23.808V63.36C158.06 65.088 157.452 66.496 156.236 67.584C155.084 68.608 153.548 69.12 151.628 69.12C149.708 69.12 148.172 68.608 147.02 67.584C145.868 66.56 145.292 65.152 145.292 63.36V23.808C145.292 18.944 144.396 15.456 142.604 13.344C140.812 11.168 137.868 10.08 133.772 10.08C130.06 10.08 127.18 11.264 125.132 13.632C123.148 16 122.156 19.392 122.156 23.808V63.36C122.156 65.152 121.58 66.56 120.428 67.584C119.276 68.608 117.74 69.12 115.82 69.12C113.9 69.12 112.364 68.608 111.212 67.584C110.124 66.56 109.58 65.152 109.58 63.36V23.808C109.58 19.52 108.556 16.16 106.508 13.728C104.46 11.296 101.612 10.08 97.9643 10.08C93.8683 10.08 90.9243 11.168 89.1323 13.344C87.3403 15.456 86.4443 18.944 86.4443 23.808V63.36C86.4443 65.088 85.8363 66.496 84.6203 67.584C83.4683 68.608 81.9323 69.12 80.0123 69.12Z" fill="#EDEDED"/>
</svg>
